<svg width="22" height="22" viewBox="0 0 22 22" fill="none" xmlns="http://www.w3.org/2000/svg">
<circle cx="11" cy="11" r="10.5" stroke="white"/>
<path d="M4 10.8689H6.15742V11.3573H4V10.8689ZM4 12.8252H6.15742V13.3136H4V12.8252ZM4 13.802H6.15742V14.2904H4V13.802ZM4 7.93311H6.15742V8.42153H4V7.93311ZM4 8.91256H6.15742V9.40098H4V8.91256ZM4 9.88941H6.15742V10.3778H4V9.88941ZM4 11.8457H6.15742V12.3341H4V11.8457ZM4 14.7815H6.15742V15.2699H4V14.7815ZM4 15.7583H6.15742V16.2728H4V15.7583Z" fill="white"/>
<path d="M6.72363 5.97684H8.88105V6.46527H6.72363V5.97684ZM6.72363 9.88945H8.88105V10.3779H6.72363V9.88945ZM6.72363 10.8689H8.88105V11.3573H6.72363V10.8689ZM6.72363 6.9563H8.88105V7.44472H6.72363V6.9563ZM6.72363 15.7583H8.88105V16.2729H6.72363V15.7583ZM6.72363 14.7815H8.88105V15.2699H6.72363V14.7815ZM6.72363 7.93315H8.88105V8.42157H6.72363V7.93315ZM6.72363 13.802H8.88105V14.2905H6.72363V13.802ZM6.72363 11.8457H8.88105V12.3342H6.72363V11.8457ZM6.72363 12.8252H8.88105V13.3136H6.72363V12.8252ZM6.72363 8.9126H8.88105V9.40102H6.72363V8.9126ZM6.72363 5H8.88105V5.48842H6.72363V5Z" fill="white"/>
<path d="M9.45117 12.8618H11.6086V13.3137H9.45117V12.8618ZM9.45117 14.7816H11.6086V15.27H9.45117V14.7816ZM9.45117 13.8021H11.6086V14.2905H9.45117V13.8021ZM9.45117 15.7584H11.6086V16.2729H9.45117V15.7584Z" fill="white"/>
<path d="M12.1748 9.88916H14.3322V10.3776H12.1748V9.88916ZM12.1748 14.7812H14.3322V15.2696H12.1748V14.7812ZM12.1748 15.7581H14.3322V16.2726H12.1748V15.7581ZM12.1748 13.8018H14.3322V14.2902H12.1748V13.8018ZM12.1748 11.8455H14.3322V12.3339H12.1748V11.8455ZM12.1748 12.8249H14.3322V13.3133H12.1748V12.8249ZM12.1748 10.8686H14.3322V11.357H12.1748V10.8686Z" fill="white"/>
<path d="M14.9023 10.8686H17.0598V11.357H14.9023V10.8686ZM14.9023 9.88916H17.0598V10.3776H14.9023V9.88916ZM14.9023 8.91232H17.0598V9.40074H14.9023V8.91232ZM14.9023 6.95602H17.0598V7.44444H14.9023V6.95602ZM14.9023 5.97656H17.0598V6.46498H14.9023V5.97656ZM14.9023 7.93286H17.0598V8.42129H14.9023V7.93286ZM14.9023 15.7581H17.0598V16.2726H14.9023V15.7581ZM14.9023 12.8249H17.0598V13.3133H14.9023V12.8249ZM14.9023 13.8018H17.0598V14.2902H14.9023V13.8018ZM14.9023 14.7812H17.0598V15.2696H14.9023V14.7812ZM14.9023 11.8455H17.0598V12.3339H14.9023V11.8455Z" fill="white"/>
</svg>
