<svg width="129" height="98" viewBox="0 0 129 98" fill="none" xmlns="http://www.w3.org/2000/svg">
<g clip-path="url(#clip0_4649_233299)">
<path d="M121.321 18.375H98.2857C92.3671 18.375 92.149 12.8717 92.1429 12.25V9.1875C92.1429 5.33488 87.8736 0 79.8571 0H49.2381C40.2234 0 36.9524 5.49412 36.9524 9.1875V12.2316C36.9493 12.4827 36.8049 18.375 30.7143 18.375H7.67857C5.64284 18.3774 3.69118 19.1849 2.25169 20.6201C0.812212 22.0554 0.0024385 24.0014 0 26.0312L0 81.1562C0 85.3764 3.44307 88.8125 7.67857 88.8125H26.1071C26.5144 88.8125 26.9051 88.6512 27.1931 88.364C27.4811 88.0768 27.6429 87.6874 27.6429 87.2812C27.6429 86.8751 27.4811 86.4857 27.1931 86.1985C26.9051 85.9113 26.5144 85.75 26.1071 85.75H7.67857C5.1385 85.75 3.07143 83.6889 3.07143 81.1562V42.875H27.6429C25.6098 47.7253 24.5657 52.9307 24.5714 58.1875C24.5714 80.1395 42.484 98 64.5 98C86.516 98 104.429 80.1395 104.429 58.1875C104.429 52.7638 103.326 47.5913 101.348 42.875H125.929V81.1562C125.929 83.6889 123.861 85.75 121.321 85.75H99.8214C99.4141 85.75 99.0235 85.9113 98.7355 86.1985C98.4475 86.4857 98.2857 86.8751 98.2857 87.2812C98.2857 87.6874 98.4475 88.0768 98.7355 88.364C99.0235 88.6512 99.4141 88.8125 99.8214 88.8125H121.321C125.557 88.8125 129 85.3764 129 81.1562V26.0312C129 21.8111 125.557 18.375 121.321 18.375ZM64.5 94.9375C44.1764 94.9375 27.6429 78.4521 27.6429 58.1875C27.6429 37.9229 44.1764 21.4375 64.5 21.4375C84.8236 21.4375 101.357 37.9229 101.357 58.1875C101.357 78.4521 84.8236 94.9375 64.5 94.9375ZM100.589 39.8125C100.37 39.814 100.154 39.8631 99.9566 39.9564C93.31 27.1583 79.9247 18.375 64.5 18.375C49.0753 18.375 35.69 27.1583 29.0434 39.9564C28.8455 39.8631 28.6296 39.814 28.4107 39.8125H3.07143V26.0312C3.07143 23.4986 5.1385 21.4375 7.67857 21.4375H30.7143C37.9874 21.4375 39.9869 15.4411 40.0238 12.25V9.1875C40.0238 6.72525 42.4779 3.0625 49.2381 3.0625H79.8571C86.2887 3.0625 89.0714 7.11725 89.0714 9.1875V12.25C89.0714 15.4289 90.9972 21.4375 98.2857 21.4375H121.321C123.861 21.4375 125.929 23.4986 125.929 26.0312V39.8125H100.589Z" fill="white"/>
<path d="M29.1786 15.3125C29.5859 15.3125 29.9765 15.1512 30.2645 14.864C30.5525 14.5768 30.7143 14.1874 30.7143 13.7812V10.7188C30.7143 8.18606 28.6472 6.125 26.1072 6.125H13.8214C11.2814 6.125 9.21429 8.18606 9.21429 10.7188V13.7812C9.21429 14.1874 9.37609 14.5768 9.6641 14.864C9.9521 15.1512 10.3427 15.3125 10.75 15.3125C11.1573 15.3125 11.5479 15.1512 11.8359 14.864C12.1239 14.5768 12.2857 14.1874 12.2857 13.7812V10.7188C12.2857 10.3126 12.4475 9.92316 12.7355 9.63599C13.0235 9.34883 13.4141 9.1875 13.8214 9.1875H26.1072C26.5144 9.1875 26.9051 9.34883 27.1931 9.63599C27.4811 9.92316 27.6429 10.3126 27.6429 10.7188V13.7812C27.6429 14.1874 27.8047 14.5768 28.0927 14.864C28.3807 15.1512 28.7713 15.3125 29.1786 15.3125Z" fill="white"/>
<path d="M64.5 30.625C49.2565 30.625 36.8571 42.9914 36.8571 58.1875C36.8571 73.3836 49.2565 85.75 64.5 85.75C79.7435 85.75 92.1429 73.3836 92.1429 58.1875C92.1429 42.9914 79.7435 30.625 64.5 30.625ZM64.5 82.6875C50.9519 82.6875 39.9286 71.6962 39.9286 58.1875C39.9286 44.6788 50.9519 33.6875 64.5 33.6875C78.0481 33.6875 89.0714 44.6788 89.0714 58.1875C89.0714 71.6962 78.0481 82.6875 64.5 82.6875Z" fill="white"/>
</g>
<defs>
<clipPath id="clip0_4649_233299">
<rect width="129" height="98" fill="white"/>
</clipPath>
</defs>
</svg>
