<svg width="20" height="20" viewBox="0 0 20 20" fill="none" xmlns="http://www.w3.org/2000/svg">
<path d="M10 4.57764e-05C8.02219 4.57764e-05 6.08879 0.586536 4.4443 1.68535C2.79981 2.78416 1.51809 4.34595 0.761209 6.17321C0.00433284 8.00047 -0.193701 10.0111 0.192152 11.9509C0.578004 13.8908 1.53041 15.6726 2.92894 17.0711C4.32746 18.4696 6.10929 19.422 8.0491 19.8079C9.98891 20.1937 11.9996 19.9957 13.8268 19.2388C15.6541 18.482 17.2159 17.2002 18.3147 15.5557C19.4135 13.9113 20 11.9779 20 10C20 8.68683 19.7413 7.38647 19.2388 6.17321C18.7363 4.95995 17.9997 3.85756 17.0711 2.92898C16.1425 2.00039 15.0401 1.2638 13.8268 0.76125C12.6136 0.258703 11.3132 4.57764e-05 10 4.57764e-05ZM10 18C8.41775 18 6.87104 17.5309 5.55544 16.6518C4.23985 15.7727 3.21447 14.5233 2.60897 13.0615C2.00347 11.5997 1.84504 9.99117 2.15372 8.43932C2.4624 6.88747 3.22433 5.46201 4.34315 4.34319C5.46197 3.22437 6.88743 2.46245 8.43928 2.15376C9.99113 1.84508 11.5997 2.00351 13.0615 2.60901C14.5233 3.21451 15.7727 4.23989 16.6518 5.55548C17.5308 6.87108 18 8.41779 18 10C18 12.1218 17.1572 14.1566 15.6569 15.6569C14.1566 17.1572 12.1217 18 10 18Z" fill="white"/>
<path d="M10 7.00015C10.5523 7.00015 11 6.55244 11 6.00015C11 5.44787 10.5523 5.00015 10 5.00015C9.44772 5.00015 9 5.44787 9 6.00015C9 6.55244 9.44772 7.00015 10 7.00015Z" fill="white"/>
<path d="M10 8.00015C9.73478 8.00015 9.48043 8.10551 9.29289 8.29305C9.10536 8.48058 9 8.73494 9 9.00015V14.0002C9 14.2654 9.10536 14.5197 9.29289 14.7073C9.48043 14.8948 9.73478 15.0002 10 15.0002C10.2652 15.0002 10.5196 14.8948 10.7071 14.7073C10.8946 14.5197 11 14.2654 11 14.0002V9.00015C11 8.73494 10.8946 8.48058 10.7071 8.29305C10.5196 8.10551 10.2652 8.00015 10 8.00015Z" fill="white"/>
</svg>
